HIERARCHY
ROOT SimulationBone
{
	OFFSET 0.000000 0.000000 0.000000
	CHANNELS 6 Xposition Yposition Zposition Zrotation Yrotation Xrotation 
	JOINT Hips
	{
		OFFSET 0.000000 0.000000 0.000000
		CHANNELS 6 Xposition Yposition Zposition Zrotation Yrotation Xrotation 
		JOINT LeftUpLeg
		{
			OFFSET 0.103459 1.857814 10.548504
			CHANNELS 3 Zrotation Yrotation Xrotation
			JOINT LeftLeg
			{
				OFFSET 43.500000 -0.000004 -0.000011
				CHANNELS 3 Zrotation Yrotation Xrotation
				JOINT LeftFoot
				{
					OFFSET 42.372196 -0.000004 0.000004
					CHANNELS 3 Zrotation Yrotation Xrotation
					JOINT LeftToe
					{
						OFFSET 17.300003 0.000001 -0.000008
						CHANNELS 3 Zrotation Yrotation Xrotation
						End Site
						{
							OFFSET 0.000000 0.000000 0.000000
						}
					}
				}
			}
		}
		JOINT RightUpLeg
		{
			OFFSET 0.103457 1.857841 -10.548511
			CHANNELS 3 Zrotation Yrotation Xrotation
			JOINT RightLeg
			{
				OFFSET 43.500042 -0.000038 0.000000
				CHANNELS 3 Zrotation Yrotation Xrotation
				JOINT RightFoot
				{
					OFFSET 42.372269 -0.000023 0.000011
					CHANNELS 3 Zrotation Yrotation Xrotation
					JOINT RightToe
					{
						OFFSET 17.300003 -0.000001 0.000023
						CHANNELS 3 Zrotation Yrotation Xrotation
						End Site
						{
							OFFSET 0.000000 0.000000 0.000000
						}
					}
				}
			}
		}
		JOINT Spine
		{
			OFFSET 6.901971 -2.603744 -0.000012
			CHANNELS 3 Zrotation Yrotation Xrotation
			JOINT Spine1
			{
				OFFSET 12.588097 -0.000002 0.000018
				CHANNELS 3 Zrotation Yrotation Xrotation
				JOINT Spine2
				{
					OFFSET 12.343208 0.000014 -0.000019
					CHANNELS 3 Zrotation Yrotation Xrotation
					JOINT Neck
					{
						OFFSET 25.832897 0.000008 0.000016
						CHANNELS 3 Zrotation Yrotation Xrotation
						JOINT Head
						{
							OFFSET 11.766600 -0.000006 0.000008
							CHANNELS 3 Zrotation Yrotation Xrotation
							End Site
							{
								OFFSET 0.000000 0.000000 0.000000
							}
						}
					}
					JOINT LeftShoulder
					{
						OFFSET 19.745909 -1.480356 6.000120
						CHANNELS 3 Zrotation Yrotation Xrotation
						JOINT LeftArm
						{
							OFFSET 11.284115 -0.000000 -0.000025
							CHANNELS 3 Zrotation Yrotation Xrotation
							JOINT LeftForeArm
							{
								OFFSET 33.000057 0.000003 0.000029
								CHANNELS 3 Zrotation Yrotation Xrotation
								JOINT LeftHand
								{
									OFFSET 25.200006 0.000029 0.000011
									CHANNELS 3 Zrotation Yrotation Xrotation
									End Site
									{
										OFFSET 0.000000 0.000000 0.000000
									}
								}
							}
						}
					}
					JOINT RightShoulder
					{
						OFFSET 19.746088 -1.480379 -6.000049
						CHANNELS 3 Zrotation Yrotation Xrotation
						JOINT RightArm
						{
							OFFSET 11.284159 -0.000019 -0.000011
							CHANNELS 3 Zrotation Yrotation Xrotation
							JOINT RightForeArm
							{
								OFFSET 33.000076 -0.000001 0.000001
								CHANNELS 3 Zrotation Yrotation Xrotation
								JOINT RightHand
								{
									OFFSET 25.199781 0.000139 0.000430
									CHANNELS 3 Zrotation Yrotation Xrotation
									End Site
									{
										OFFSET 0.000000 0.000000 0.000000
									}
								}
							}
						}
					}
				}
			}
		}
	}
}
MOTION
Frames: 5
Frame Time: 0.016667
100.160457 0.000000 233.313985 0.000000 62.643303 0.000000 -1.990088 90.832314 -1.070031 90.982867 0.431759 -179.731284 163.357648 2.253497 -174.278601 -17.669201 -3.344329 -1.978021 74.110208 2.539503 3.462778 21.454555 0.003085 -0.000001 -172.857908 -2.451800 -175.536039 -20.512759 1.552056 -2.103538 84.697978 0.761088 -3.019851 21.454560 -0.003103 -0.000018 8.586821 1.533173 -0.020612 7.164092 3.064611 0.053529 6.845482 3.064999 0.035018 1.410435 19.666087 8.418833 -25.046458 -22.677778 21.982814 -170.478706 -83.257605 -11.214791 -19.439622 63.602446 32.393066 -34.663376 -16.518430 1.425591 -0.404801 -4.694133 10.573862 -174.209398 73.659092 7.332504 10.010455 -38.696586 -32.875540 -81.317281 12.265326 -2.821080 18.622917 -19.272226 -63.507999 
100.432682 0.000000 232.600965 0.000000 62.485883 0.000000 -2.032003 90.872110 -1.031865 90.897755 0.390900 -179.918484 163.403189 2.038218 -175.394340 -18.371832 -3.544370 -1.504876 74.508706 2.309020 3.842689 21.454551 0.003091 0.000000 -172.741881 -2.350140 -175.694757 -20.855436 1.385447 -2.236485 84.364995 0.910005 -2.727481 21.454556 -0.003111 -0.000017 8.520448 1.449919 0.009124 7.031658 2.896524 0.106174 6.713098 2.897236 0.088667 1.439341 19.282561 8.342132 -24.991805 -22.457047 21.724863 -170.310262 -82.992854 -11.384337 -18.934116 63.325792 32.904280 -34.234863 -16.441675 1.410833 -0.527326 -4.628354 10.462965 -174.077768 73.410103 7.465399 8.424314 -40.411294 -31.367538 -78.974916 14.017973 -2.841501 17.197103 -16.065431 -65.193629 
100.705639 0.000000 231.899040 0.000000 62.333981 0.000000 -2.048270 90.933006 -1.005199 90.854935 0.313072 179.997247 163.644393 1.971307 -176.591959 -18.813867 -3.491911 -0.949108 74.851564 1.983228 4.109249 21.454550 0.003101 0.000001 -172.598662 -2.217599 -175.750890 -21.230928 1.200772 -2.375076 83.925894 1.074656 -2.376400 21.454555 -0.003105 -0.000017 8.458014 1.360130 0.028120 6.906754 2.716078 0.137203 6.588260 2.716990 0.120787 1.552655 19.001885 8.266575 -24.940860 -22.250941 21.478336 -170.607907 -82.837154 -11.082846 -18.513824 63.131505 33.278719 -33.775083 -16.381772 1.396821 -0.433680 -4.544253 10.291190 -174.203702 73.115826 7.333453 6.907752 -42.146224 -29.649058 -76.479622 15.696832 -2.851808 15.737963 -13.636629 -65.618931 
100.979255 0.000000 231.208093 0.000000 62.187567 0.000000 -2.040051 91.011248 -0.989776 90.846102 0.200266 179.976396 164.046698 2.027434 -177.678543 -19.025911 -3.310977 -0.438501 75.150859 1.662866 4.294951 21.454549 0.003108 0.000001 -172.430365 -2.044744 -175.790139 -21.627213 1.034663 -2.495646 83.403656 1.236908 -1.985241 21.454554 -0.003096 -0.000017 8.398564 1.266233 0.042200 6.787670 2.527737 0.158411 6.469245 2.528792 0.143140 1.709487 18.736672 8.187465 -24.855736 -22.016721 21.202915 -171.058631 -82.758792 -10.626633 -18.193127 63.008194 33.531783 -33.313410 -16.324388 1.383033 -0.225713 -4.482123 10.068829 -174.502336 72.852068 7.024207 5.434921 -43.866874 -27.856791 -73.829024 17.282357 -2.849335 14.176164 -11.786307 -64.662271 
101.253456 0.000000 230.528007 0.000000 62.046606 0.000000 -2.008496 91.103081 -0.985313 90.862982 0.054352 179.979415 164.577260 2.176994 -178.460194 -19.041553 -3.125959 -0.097817 75.419146 1.448030 4.433286 21.454550 0.003107 0.000001 -172.239558 -1.821703 -175.898094 -22.032556 0.924140 -2.575114 82.820913 1.378210 -1.572185 21.454555 -0.003093 -0.000017 8.341129 1.170667 0.057186 6.672629 2.336023 0.181581 6.354261 2.337225 0.167474 1.869278 18.399450 8.100282 -24.699560 -21.711168 20.859092 -171.375715 -82.726668 -10.305721 -17.988748 62.944214 33.676585 -32.879276 -16.255200 1.369119 -0.004872 -4.482686 9.805609 -174.899192 72.694457 6.614824 3.995037 -45.543492 -26.137941 -71.021139 18.754986 -2.833953 12.412590 -10.295786 -62.203925 
